<svg xmlns="http://www.w3.org/2000/svg" viewBox="3.738997459411621 -3.368000030517578 90.96800231933594 100.42800903320312" stroke-width="0" fill="#0088CB"><path d="M92.59 18.82C87.58-3.368 61.705 7.13 50.934 20.426c-4.75-4.213-10.66-8.568-16.636-11.24-.268-.39-.798-.567-1.437-.61-10.152-4.06-20.23-2.833-24.855 12.66C3.74 35.52 6.842 47.717 13.23 58.287a55.977 55.977 0 0 0-.95 2.824c-.686 2.26 2.238 2.072 3.954 1.717 8.73 12.142 21.337 22.03 30.74 30.45-.124.065-.24.14-.364.2-4.742 2.316-.29 3.58 2.508 2.217 11.03-5.393 45.59-52.17 44.21-71.707a40.826 40.826 0 0 0-.117-1.337c.237-.667.468-1.33.688-1.984.42-1.257-.253-1.76-1.307-1.85zM44.086 81.73a28.194 28.194 0 0 0 2.736-.59c-.284.738-.554 1.486-.827 2.232l-1.908-1.64zM25.087 62.598c2.017-.346 4.044-1 6.05-1.914A185.105 185.105 0 0 0 28.53 66.8a81.19 81.19 0 0 1-3.443-4.203zM13.91 28.97c.51-.23.907-.45 1.077-.602 2.706-2.42 5.348-4.936 8.013-7.41-3.125 5.682-6.77 10.943-8.825 17.496a48.974 48.974 0 0 1-.266-9.483zm19.005-14.455a53.65 53.65 0 0 1 3.582 2.476c-4.112 4.617-7.97 9.604-12.345 13.795 2.786-5.533 6.308-10.468 8.763-16.27zm8.787 6.742c.87.77 1.69 1.516 2.442 2.22-2.317 1.227-4.522 2.93-6.59 4.983a89.33 89.33 0 0 0 4.148-7.203zm4.234 39.088c-1.72 3.705-3.212 7.58-4.377 11.7-.664.31-1.338.595-2.026.85a112 112 0 0 1 2.858-9.143 114.816 114.816 0 0 0 3.544-3.407zm39.28-37.538c-3.533 4.01-7.037 8.093-10.443 12.29 2.568-6.256 4.85-12.652 6.983-18.826 1.414 1.734 2.598 3.91 3.46 6.537zM47.555 76.08c.195-.933.41-1.852.637-2.76a43.082 43.082 0 0 0 2.982-2.173 139.707 139.707 0 0 0-1.998 4.327c-.538.228-1.08.427-1.62.607zm2.533-9.354c3.25-12.875 10.5-22.5 18.2-31.634-4.48 11.532-10.618 24.09-18.2 31.634zm-19.5-15.624c2.754-2.276 9.423-10.2 11.874-13-1.058 2.02-4.486 11.57-5.5 13.624-1.716 1.456-5.693 3.924-7.48 4.75.163-.623.91-4.715 1.105-5.374zm-7.234 2.306c-.626.476-1.257.928-1.89 1.365 1.458-3.452 3.202-6.667 5.097-9.758a73.776 73.776 0 0 0-3.207 8.393zm35.97 15.063c5.9-11.548 12.138-22.12 21.193-31.7-3.43 12.206-11.056 24.206-21.195 31.7zm16.608-56.457c-1.847 3.655-3.887 7.148-6.038 10.542a96.15 96.15 0 0 0 2.338-7.73c.914-3.6-5.58-1.307-6.496-.33-2.445 2.6-4.85 5.406-7.2 8.356.08-.485.158-.97.22-1.453.146-1.15-.335-1.736-1.1-1.958 5.34-7.122 12.428-9.574 18.276-7.427zM48.844 48.89c2.62-6.914 6.245-12.914 11.008-18.34-2.013 6.8-5.638 13.05-11.008 18.34zM26.24 11.36c-2.29 1.854-4.507 3.814-6.697 5.82a25.62 25.62 0 0 1 3.477-4.39c.697-.794.862-1.407.707-1.87.81.047 1.65.2 2.514.44zm-9.104 37.976c-1.175-2.64-2.01-5.45-2.558-8.34 1.28.587 3.786.04 4.363-.277 2.4-1.34 4.615-2.91 6.71-4.636-2.956 4.36-5.903 8.712-8.44 13.41-.022-.054-.05-.104-.074-.158zM52.58 89.08a305.634 305.634 0 0 0-1.793-1.573c3-2 5.926-4.41 8.75-7.107-2.16 3.116-4.413 6.164-6.956 8.68z"/></svg>