<svg xmlns="http://www.w3.org/2000/svg" viewBox="12.632819801751822 80.61318518047683 174.73435276710183 38.47361895789398"><path d="M169.4 96.5c-3.2.9-5.8 2.5-7.8 4.6.3-1.1.6-2.3 1-3.4.5-.3 1-.6 1.5-1 .1-.1 9.8-7.5 9.4-11.8-.1-1-.6-1.7-1.5-2.2-.6-.3-1.5-.5-2.7.1-2.8 1.4-6.1 7-8.4 13.4-8.4 5-18.2 4.5-28.6 3.9-8.6-.5-17.5-.9-25.7 1.9-2.8 1-4.9 2.2-6.6 3.6-1.6-1.4-3.8-2.6-6.6-3.6-8.3-2.9-17.2-2.4-25.7-1.9-10.4.6-20.2 1.1-28.6-3.9-2.3-6.4-5.6-12-8.4-13.4-1.2-.6-2.2-.4-2.7-.1-.9.5-1.5 1.2-1.5 2.2-.3 4.2 9.3 11.7 9.4 11.8.5.4 1 .7 1.5 1 .4 1.1.7 2.2 1 3.4-2-2.1-4.7-3.6-7.8-4.6-6.1-1.8-13.4-1.1-17.7 1.9l1.2 1.7c3.8-2.6 10.4-3.3 15.9-1.6 3.3 1 7.6 3.2 9.6 8l1-.4 1-.1c-.3-2.2-.8-4.5-1.5-6.8 8.5 4.2 18.3 3.6 27.8 3.1 8.4-.5 17.1-.9 24.9 1.8 2.4.8 4.3 1.9 5.7 3.1-1.9 2.2-2.6 4.6-2.2 6.7.4 2.2 1.9 3.6 3.7 3.6 1.9 0 3.4-1.4 3.7-3.6.3-2-.3-4.5-2.2-6.7 1.4-1.2 3.3-2.2 5.7-3.1 7.9-2.7 16.5-2.3 24.9-1.8 9.5.5 19.2 1 27.8-3.1-.7 2.3-1.2 4.6-1.5 6.8l1 .1 1 .4c2-4.9 6.3-7 9.6-8 5.6-1.7 12.1-1 15.9 1.6l1.2-1.7c-4.3-2.9-11.5-3.7-17.7-1.9zm.8-11.7c.3-.1.5-.2.6-.2.1 0 .2 0 .2.1.3.2.4.3.4.5.2 2-4.8 6.8-7.4 9 2-4.8 4.4-8.5 6.2-9.4zm-141.6.3c0-.2.1-.3.4-.5 0 0 .1-.1.2-.1s.3 0 .6.2c1.8.9 4.2 4.6 6.2 9.3-2.6-2.1-7.6-6.8-7.4-8.9zm73 28.5c-.2 1.1-.8 1.8-1.6 1.8s-1.5-.7-1.6-1.8c-.2-1.4.3-3.2 1.6-4.8 1.4 1.6 1.9 3.3 1.6 4.8z"/></svg>